<mxfile host="app.diagrams.net" agent="Mozilla/5.0 (Windows NT 10.0; Win64; x64) AppleWebKit/537.36 (KHTML, like Gecko) Chrome/135.0.0.0 Safari/537.36 Edg/135.0.0.0" version="26.2.14">
  <diagram name="Page-1" id="i0UoApTVICzmSJBnCe-1">
    <mxGraphModel dx="1175" dy="1841" grid="1" gridSize="10" guides="1" tooltips="1" connect="1" arrows="1" fold="1" page="1" pageScale="1" pageWidth="850" pageHeight="1100" math="0" shadow="0">
      <root>
        <mxCell id="0" />
        <mxCell id="1" parent="0" />
        <mxCell id="2" value="Vehicle" style="swimlane;fontStyle=1;align=center;verticalAlign=top;childLayout=stackLayout;horizontal=1;startSize=35.55555555555556;horizontalStack=0;resizeParent=1;resizeParentMax=0;resizeLast=0;collapsible=0;marginBottom=0;" parent="1" vertex="1">
          <mxGeometry x="611" y="-420" width="230" height="279.99555555555554" as="geometry" />
        </mxCell>
        <mxCell id="3" value="    -V_ID: String&#xa;    -manufacture_name: String&#xa;    +sensorReading: Sensor[3]" style="text;strokeColor=none;fillColor=none;align=left;verticalAlign=top;spacingLeft=4;spacingRight=4;overflow=hidden;rotatable=0;points=[[0,0.5],[1,0.5]];portConstraint=eastwest;" parent="2" vertex="1">
          <mxGeometry y="35.55555555555556" width="230" height="64.44" as="geometry" />
        </mxCell>
        <mxCell id="6" style="line;strokeWidth=1;fillColor=none;align=left;verticalAlign=middle;spacingTop=-1;spacingLeft=3;spacingRight=3;rotatable=0;labelPosition=right;points=[];portConstraint=eastwest;strokeColor=inherit;" parent="2" vertex="1">
          <mxGeometry y="99.99555555555555" width="230" height="18" as="geometry" />
        </mxCell>
        <mxCell id="xko__DXDvP-hnPtf-5rj-51" value="    +getV_ID(): String&#xa;    +getManufacture_name(): String&#xa;    +getSensorReading(): Sensor[]&#xa;    +toString(): String &#xa;   +setVID(String): void&#xa;    +setManufacturename(String): void&#xa;    +setSensorReadings(Sensor[]): void" style="text;strokeColor=none;fillColor=none;align=left;verticalAlign=top;spacingLeft=4;spacingRight=4;overflow=hidden;rotatable=0;points=[[0,0.5],[1,0.5]];portConstraint=eastwest;" parent="2" vertex="1">
          <mxGeometry y="117.99555555555555" width="230" height="162" as="geometry" />
        </mxCell>
        <mxCell id="7" value="SensorReading" style="swimlane;fontStyle=1;align=center;verticalAlign=top;childLayout=stackLayout;horizontal=1;startSize=35.55555555555556;horizontalStack=0;resizeParent=1;resizeParentMax=0;resizeLast=0;collapsible=0;marginBottom=0;" parent="1" vertex="1">
          <mxGeometry x="1050" y="-290" width="201" height="249.99555555555554" as="geometry" />
        </mxCell>
        <mxCell id="8" value="   -type: String&#xa;    -value: double&#xa;    -timestamp: String" style="text;strokeColor=none;fillColor=none;align=left;verticalAlign=top;spacingLeft=4;spacingRight=4;overflow=hidden;rotatable=0;points=[[0,0.5],[1,0.5]];portConstraint=eastwest;" parent="7" vertex="1">
          <mxGeometry y="35.55555555555556" width="201" height="74.44" as="geometry" />
        </mxCell>
        <mxCell id="11" style="line;strokeWidth=1;fillColor=none;align=left;verticalAlign=middle;spacingTop=-1;spacingLeft=3;spacingRight=3;rotatable=0;labelPosition=right;points=[];portConstraint=eastwest;strokeColor=inherit;" parent="7" vertex="1">
          <mxGeometry y="109.99555555555555" width="201" height="18" as="geometry" />
        </mxCell>
        <mxCell id="10" value="   +getType(): String&#xa;    +getValue(): double&#xa;    +getTimestamp(): String&#xa;    +toString(): String&#xa;    +setType(String): void&#xa;    +setValue(double): void&#xa;    +setTimestamp(String): void" style="text;strokeColor=none;fillColor=none;align=left;verticalAlign=top;spacingLeft=4;spacingRight=4;overflow=hidden;rotatable=0;points=[[0,0.5],[1,0.5]];portConstraint=eastwest;" parent="7" vertex="1">
          <mxGeometry y="127.99555555555555" width="201" height="122" as="geometry" />
        </mxCell>
        <mxCell id="12" value="PublicVehicle" style="swimlane;fontStyle=1;align=center;verticalAlign=top;childLayout=stackLayout;horizontal=1;startSize=38.857142857142854;horizontalStack=0;resizeParent=1;resizeParentMax=0;resizeLast=0;collapsible=0;marginBottom=0;" parent="1" vertex="1">
          <mxGeometry x="180" width="234" height="189.99714285714288" as="geometry" />
        </mxCell>
        <mxCell id="13" value="    -capacity: int&#xa;    -routeNumber: String" style="text;strokeColor=none;fillColor=none;align=left;verticalAlign=top;spacingLeft=4;spacingRight=4;overflow=hidden;rotatable=0;points=[[0,0.5],[1,0.5]];portConstraint=eastwest;" parent="12" vertex="1">
          <mxGeometry y="38.857142857142854" width="234" height="39" as="geometry" />
        </mxCell>
        <mxCell id="15" style="line;strokeWidth=1;fillColor=none;align=left;verticalAlign=middle;spacingTop=-1;spacingLeft=3;spacingRight=3;rotatable=0;labelPosition=right;points=[];portConstraint=eastwest;strokeColor=inherit;" parent="12" vertex="1">
          <mxGeometry y="77.85714285714286" width="234" height="19" as="geometry" />
        </mxCell>
        <mxCell id="xko__DXDvP-hnPtf-5rj-52" value="    +getCapacity(): int&#xa;    +getRouteNumber(): String&#xa;    +toString(): String &#xa;   +setCapacity(int): void&#xa;    +setRouteNumber(String): void" style="text;strokeColor=none;fillColor=none;align=left;verticalAlign=top;spacingLeft=4;spacingRight=4;overflow=hidden;rotatable=0;points=[[0,0.5],[1,0.5]];portConstraint=eastwest;" parent="12" vertex="1">
          <mxGeometry y="96.85714285714286" width="234" height="93.14" as="geometry" />
        </mxCell>
        <mxCell id="16" value="PrivateVehicle" style="swimlane;fontStyle=1;align=center;verticalAlign=top;childLayout=stackLayout;horizontal=1;startSize=38.857142857142854;horizontalStack=0;resizeParent=1;resizeParentMax=0;resizeLast=0;collapsible=0;marginBottom=0;" parent="1" vertex="1">
          <mxGeometry x="609" y="226" width="218" height="179.99714285714288" as="geometry" />
        </mxCell>
        <mxCell id="17" value="  -ownerName: String&#xa;    -isElectric: boolean" style="text;strokeColor=none;fillColor=none;align=left;verticalAlign=top;spacingLeft=4;spacingRight=4;overflow=hidden;rotatable=0;points=[[0,0.5],[1,0.5]];portConstraint=eastwest;" parent="16" vertex="1">
          <mxGeometry y="38.857142857142854" width="218" height="39" as="geometry" />
        </mxCell>
        <mxCell id="19" style="line;strokeWidth=1;fillColor=none;align=left;verticalAlign=middle;spacingTop=-1;spacingLeft=3;spacingRight=3;rotatable=0;labelPosition=right;points=[];portConstraint=eastwest;strokeColor=inherit;" parent="16" vertex="1">
          <mxGeometry y="77.85714285714286" width="218" height="19" as="geometry" />
        </mxCell>
        <mxCell id="18" value="  +getOwnerName(): String&#xa;    +isElectric(): boolean&#xa;    +toString(): String  &#xa;   +setOwnerName(String): void&#xa;    +setIsElectric(boolean): void" style="text;strokeColor=none;fillColor=none;align=left;verticalAlign=top;spacingLeft=4;spacingRight=4;overflow=hidden;rotatable=0;points=[[0,0.5],[1,0.5]];portConstraint=eastwest;" parent="16" vertex="1">
          <mxGeometry y="96.85714285714286" width="218" height="83.14" as="geometry" />
        </mxCell>
        <mxCell id="20" value="AutonomousDeliveryVehicle" style="swimlane;fontStyle=1;align=center;verticalAlign=top;childLayout=stackLayout;horizontal=1;startSize=38.857142857142854;horizontalStack=0;resizeParent=1;resizeParentMax=0;resizeLast=0;collapsible=0;marginBottom=0;" parent="1" vertex="1">
          <mxGeometry x="880" y="190" width="371" height="189.99714285714288" as="geometry" />
        </mxCell>
        <mxCell id="21" value="   -aiModelVersion: String&#xa;    -canBeRemoteControlled: boolean" style="text;strokeColor=none;fillColor=none;align=left;verticalAlign=top;spacingLeft=4;spacingRight=4;overflow=hidden;rotatable=0;points=[[0,0.5],[1,0.5]];portConstraint=eastwest;" parent="20" vertex="1">
          <mxGeometry y="38.857142857142854" width="371" height="39" as="geometry" />
        </mxCell>
        <mxCell id="23" style="line;strokeWidth=1;fillColor=none;align=left;verticalAlign=middle;spacingTop=-1;spacingLeft=3;spacingRight=3;rotatable=0;labelPosition=right;points=[];portConstraint=eastwest;strokeColor=inherit;" parent="20" vertex="1">
          <mxGeometry y="77.85714285714286" width="371" height="19" as="geometry" />
        </mxCell>
        <mxCell id="22" value="  +getAiModelVersion(): String&#xa;    +canBeRemoteControlled(): boolean&#xa;    +toString(): String &#xa;    +setAiModelVersion(String): void&#xa;    +setCanBeRemoteControlled(boolean): void" style="text;strokeColor=none;fillColor=none;align=left;verticalAlign=top;spacingLeft=4;spacingRight=4;overflow=hidden;rotatable=0;points=[[0,0.5],[1,0.5]];portConstraint=eastwest;" parent="20" vertex="1">
          <mxGeometry y="96.85714285714286" width="371" height="93.14" as="geometry" />
        </mxCell>
        <mxCell id="24" value="Bus" style="swimlane;fontStyle=1;align=center;verticalAlign=top;childLayout=stackLayout;horizontal=1;startSize=38.857142857142854;horizontalStack=0;resizeParent=1;resizeParentMax=0;resizeLast=0;collapsible=0;marginBottom=0;" parent="1" vertex="1">
          <mxGeometry x="8" y="420" width="258" height="199.99714285714288" as="geometry" />
        </mxCell>
        <mxCell id="25" value="   -numberOfStops: int&#xa;    -hasWheelchairAccess: boolean" style="text;strokeColor=none;fillColor=none;align=left;verticalAlign=top;spacingLeft=4;spacingRight=4;overflow=hidden;rotatable=0;points=[[0,0.5],[1,0.5]];portConstraint=eastwest;" parent="24" vertex="1">
          <mxGeometry y="38.857142857142854" width="258" height="39" as="geometry" />
        </mxCell>
        <mxCell id="27" style="line;strokeWidth=1;fillColor=none;align=left;verticalAlign=middle;spacingTop=-1;spacingLeft=3;spacingRight=3;rotatable=0;labelPosition=right;points=[];portConstraint=eastwest;strokeColor=inherit;" parent="24" vertex="1">
          <mxGeometry y="77.85714285714286" width="258" height="19" as="geometry" />
        </mxCell>
        <mxCell id="xko__DXDvP-hnPtf-5rj-53" value=" +getNumberOfStops(): int&#xa;    +hasWheelchairAccess(): boolean&#xa;    +toString(): String &#xa;    +setNumberOfStops(int): void&#xa;    +setHasWheelchairAccess(boolean): void" style="text;strokeColor=none;fillColor=none;align=left;verticalAlign=top;spacingLeft=4;spacingRight=4;overflow=hidden;rotatable=0;points=[[0,0.5],[1,0.5]];portConstraint=eastwest;" parent="24" vertex="1">
          <mxGeometry y="96.85714285714286" width="258" height="103.14" as="geometry" />
        </mxCell>
        <mxCell id="28" value="MetroTrain" style="swimlane;fontStyle=1;align=center;verticalAlign=top;childLayout=stackLayout;horizontal=1;startSize=38.857142857142854;horizontalStack=0;resizeParent=1;resizeParentMax=0;resizeLast=0;collapsible=0;marginBottom=0;" parent="1" vertex="1">
          <mxGeometry x="316" y="420" width="229" height="189.99714285714288" as="geometry" />
        </mxCell>
        <mxCell id="30" value="    -carriageCount: int&#xa;    -maxSpeed: double" style="text;strokeColor=none;fillColor=none;align=left;verticalAlign=top;spacingLeft=4;spacingRight=4;overflow=hidden;rotatable=0;points=[[0,0.5],[1,0.5]];portConstraint=eastwest;" parent="28" vertex="1">
          <mxGeometry y="38.857142857142854" width="229" height="39" as="geometry" />
        </mxCell>
        <mxCell id="31" style="line;strokeWidth=1;fillColor=none;align=left;verticalAlign=middle;spacingTop=-1;spacingLeft=3;spacingRight=3;rotatable=0;labelPosition=right;points=[];portConstraint=eastwest;strokeColor=inherit;" parent="28" vertex="1">
          <mxGeometry y="77.85714285714286" width="229" height="19" as="geometry" />
        </mxCell>
        <mxCell id="34" value="  +getCarriageCount(): int&#xa;    +getMaxSpeed(): double&#xa;    +toString(): String &#xa;    +setCarriageCount(int): void&#xa;    +setMaxSpeed(double): void" style="text;strokeColor=none;fillColor=none;align=left;verticalAlign=top;spacingLeft=4;spacingRight=4;overflow=hidden;rotatable=0;points=[[0,0.5],[1,0.5]];portConstraint=eastwest;" parent="28" vertex="1">
          <mxGeometry y="96.85714285714286" width="229" height="93.14" as="geometry" />
        </mxCell>
        <mxCell id="32" value="ElectricCar" style="swimlane;fontStyle=1;align=center;verticalAlign=top;childLayout=stackLayout;horizontal=1;startSize=38.857142857142854;horizontalStack=0;resizeParent=1;resizeParentMax=0;resizeLast=0;collapsible=0;marginBottom=0;" parent="1" vertex="1">
          <mxGeometry x="595" y="502" width="246" height="189.99714285714288" as="geometry" />
        </mxCell>
        <mxCell id="33" value="   -batteryRange: double&#xa;    -chargingStationID: String" style="text;strokeColor=none;fillColor=none;align=left;verticalAlign=top;spacingLeft=4;spacingRight=4;overflow=hidden;rotatable=0;points=[[0,0.5],[1,0.5]];portConstraint=eastwest;" parent="32" vertex="1">
          <mxGeometry y="38.857142857142854" width="246" height="39" as="geometry" />
        </mxCell>
        <mxCell id="35" style="line;strokeWidth=1;fillColor=none;align=left;verticalAlign=middle;spacingTop=-1;spacingLeft=3;spacingRight=3;rotatable=0;labelPosition=right;points=[];portConstraint=eastwest;strokeColor=inherit;" parent="32" vertex="1">
          <mxGeometry y="77.85714285714286" width="246" height="19" as="geometry" />
        </mxCell>
        <mxCell id="38" value="   +getBatteryRange(): double&#xa;    +getChargingStationID(): String&#xa;    +toString(): String &#xa;   +setBatteryRange(double): void&#xa;    +setChargingStationID(String): void" style="text;strokeColor=none;fillColor=none;align=left;verticalAlign=top;spacingLeft=4;spacingRight=4;overflow=hidden;rotatable=0;points=[[0,0.5],[1,0.5]];portConstraint=eastwest;" parent="32" vertex="1">
          <mxGeometry y="96.85714285714286" width="246" height="93.14" as="geometry" />
        </mxCell>
        <mxCell id="36" value="Drone" style="swimlane;fontStyle=1;align=center;verticalAlign=top;childLayout=stackLayout;horizontal=1;startSize=38.857142857142854;horizontalStack=0;resizeParent=1;resizeParentMax=0;resizeLast=0;collapsible=0;marginBottom=0;" parent="1" vertex="1">
          <mxGeometry x="919" y="510" width="238" height="199.99714285714288" as="geometry" />
        </mxCell>
        <mxCell id="37" value="    -flightAltitude: double&#xa;    -cameraResolution: String" style="text;strokeColor=none;fillColor=none;align=left;verticalAlign=top;spacingLeft=4;spacingRight=4;overflow=hidden;rotatable=0;points=[[0,0.5],[1,0.5]];portConstraint=eastwest;" parent="36" vertex="1">
          <mxGeometry y="38.857142857142854" width="238" height="39" as="geometry" />
        </mxCell>
        <mxCell id="39" style="line;strokeWidth=1;fillColor=none;align=left;verticalAlign=middle;spacingTop=-1;spacingLeft=3;spacingRight=3;rotatable=0;labelPosition=right;points=[];portConstraint=eastwest;strokeColor=inherit;" parent="36" vertex="1">
          <mxGeometry y="77.85714285714286" width="238" height="19" as="geometry" />
        </mxCell>
        <mxCell id="42" value="    +getFlightAltitude(): double&#xa;    +getCameraResolution(): String&#xa;    +toString(): String &#xa;   +setFlightAltitude(double): void&#xa;    +setCameraResolution(String): void" style="text;strokeColor=none;fillColor=none;align=left;verticalAlign=top;spacingLeft=4;spacingRight=4;overflow=hidden;rotatable=0;points=[[0,0.5],[1,0.5]];portConstraint=eastwest;" parent="36" vertex="1">
          <mxGeometry y="96.85714285714286" width="238" height="103.14" as="geometry" />
        </mxCell>
        <mxCell id="40" value="DeliveryRobot" style="swimlane;fontStyle=1;align=center;verticalAlign=top;childLayout=stackLayout;horizontal=1;startSize=38.857142857142854;horizontalStack=0;resizeParent=1;resizeParentMax=0;resizeLast=0;collapsible=0;marginBottom=0;" parent="1" vertex="1">
          <mxGeometry x="1251" y="460" width="220" height="206.85714285714286" as="geometry" />
        </mxCell>
        <mxCell id="41" value="   -terrainType: String&#xa;    -deliveryCapacity: double" style="text;strokeColor=none;fillColor=none;align=left;verticalAlign=top;spacingLeft=4;spacingRight=4;overflow=hidden;rotatable=0;points=[[0,0.5],[1,0.5]];portConstraint=eastwest;" parent="40" vertex="1">
          <mxGeometry y="38.857142857142854" width="220" height="39" as="geometry" />
        </mxCell>
        <mxCell id="43" style="line;strokeWidth=1;fillColor=none;align=left;verticalAlign=middle;spacingTop=-1;spacingLeft=3;spacingRight=3;rotatable=0;labelPosition=right;points=[];portConstraint=eastwest;strokeColor=inherit;" parent="40" vertex="1">
          <mxGeometry y="77.85714285714286" width="220" height="19" as="geometry" />
        </mxCell>
        <mxCell id="xko__DXDvP-hnPtf-5rj-54" value="&lt;div&gt;&amp;nbsp; &amp;nbsp; +getTerrainType(): String&lt;/div&gt;&lt;div&gt;&amp;nbsp; &amp;nbsp; +getDeliveryCapacity(): double&lt;/div&gt;&lt;div&gt;&amp;nbsp; &amp;nbsp; +toString(): String&amp;nbsp;&lt;/div&gt;&lt;div&gt;&lt;div&gt;&amp;nbsp; &amp;nbsp; +setTerrainType(String): void&lt;/div&gt;&lt;div&gt;&amp;nbsp; &amp;nbsp; +setDeliveryCapacity(double): void&lt;/div&gt;&lt;/div&gt;" style="text;html=1;align=center;verticalAlign=middle;whiteSpace=wrap;rounded=0;" parent="40" vertex="1">
          <mxGeometry y="96.85714285714286" width="220" height="110" as="geometry" />
        </mxCell>
        <mxCell id="45" value="" style="curved=1;startArrow=block;startSize=16;startFill=0;endArrow=none;exitX=0.5;exitY=1;entryX=0.5;entryY=0;" parent="1" source="2" target="16" edge="1">
          <mxGeometry relative="1" as="geometry">
            <Array as="points" />
          </mxGeometry>
        </mxCell>
        <mxCell id="46" value="" style="curved=1;startArrow=block;startSize=16;startFill=0;endArrow=none;exitX=1;exitY=0.7;entryX=0.5;entryY=0;" parent="1" source="2" target="20" edge="1">
          <mxGeometry relative="1" as="geometry">
            <Array as="points">
              <mxPoint x="1062" y="201" />
            </Array>
          </mxGeometry>
        </mxCell>
        <mxCell id="47" value="" style="curved=1;startArrow=block;startSize=16;startFill=0;endArrow=none;exitX=0.44;exitY=1;entryX=0.5;entryY=0;" parent="1" source="12" target="24" edge="1">
          <mxGeometry relative="1" as="geometry">
            <Array as="points">
              <mxPoint x="137" y="395" />
            </Array>
          </mxGeometry>
        </mxCell>
        <mxCell id="48" value="" style="curved=1;startArrow=block;startSize=16;startFill=0;endArrow=none;exitX=1;exitY=0.77;entryX=0.5;entryY=0;" parent="1" source="12" target="28" edge="1">
          <mxGeometry relative="1" as="geometry">
            <Array as="points">
              <mxPoint x="431" y="395" />
            </Array>
          </mxGeometry>
        </mxCell>
        <mxCell id="49" value="" style="curved=1;startArrow=block;startSize=16;startFill=0;endArrow=none;exitX=0.5;exitY=1;entryX=0.5;entryY=0;" parent="1" source="16" target="32" edge="1">
          <mxGeometry relative="1" as="geometry">
            <Array as="points" />
          </mxGeometry>
        </mxCell>
        <mxCell id="50" value="" style="curved=1;startArrow=block;startSize=16;startFill=0;endArrow=none;exitX=0.44;exitY=1;entryX=0.5;entryY=0;" parent="1" source="20" target="36" edge="1">
          <mxGeometry relative="1" as="geometry">
            <Array as="points">
              <mxPoint x="1034" y="395" />
            </Array>
          </mxGeometry>
        </mxCell>
        <mxCell id="51" value="" style="curved=1;startArrow=block;startSize=16;startFill=0;endArrow=none;exitX=1;exitY=0.97;entryX=0.5;entryY=0;" parent="1" source="20" target="40" edge="1">
          <mxGeometry relative="1" as="geometry">
            <Array as="points">
              <mxPoint x="1328" y="395" />
            </Array>
          </mxGeometry>
        </mxCell>
        <mxCell id="44" value="" style="curved=1;startArrow=block;startSize=16;startFill=0;endArrow=none;exitX=0;exitY=0.62;entryX=0.427;entryY=0;entryDx=0;entryDy=0;entryPerimeter=0;" parent="1" target="12" edge="1">
          <mxGeometry relative="1" as="geometry">
            <Array as="points">
              <mxPoint x="210" y="57.400000000000006" />
            </Array>
            <mxPoint x="614" y="-330.0027555555556" as="sourcePoint" />
            <mxPoint x="292.5" y="-80" as="targetPoint" />
          </mxGeometry>
        </mxCell>
      </root>
    </mxGraphModel>
  </diagram>
</mxfile>
